<svg width="120" height="18" viewBox="0 0 120 18" fill="none" xmlns="http://www.w3.org/2000/svg">
<g clip-path="url(#clip0)">
<path d="M5.50271 8.08541H6.59241C8.46478 8.08541 9.71102 7.97102 10.3371 7.7302C10.9633 7.4954 11.457 7.12213 11.8182 6.60437C12.1794 6.08661 12.36 5.52069 12.36 4.90058C12.36 4.48517 12.2697 4.14802 12.0831 3.8771C11.8964 3.6122 11.6436 3.41954 11.3064 3.29312C10.9753 3.17271 10.2348 3.1125 9.08489 3.1125H6.55027L5.50271 8.08541ZM3.54606 17.5014H0L3.60626 0.294922H10.596C11.8423 0.294922 12.8236 0.439413 13.5461 0.734416C14.2685 1.02942 14.8405 1.51106 15.2679 2.19137C15.6893 2.86566 15.9001 3.67843 15.9001 4.61762C15.9001 5.48457 15.7315 6.33345 15.3943 7.15224C15.0572 7.97704 14.6478 8.63327 14.1541 9.12093C13.6665 9.61461 13.1367 9.98788 12.5768 10.2407C12.0169 10.4936 11.2523 10.6863 10.301 10.8247C9.74714 10.903 8.7056 10.9391 7.1764 10.9391H4.91872L3.54606 17.5014Z" fill="#333333"/>
<path d="M24.3107 9.91572C24.3107 9.115 24.0759 8.47683 23.6123 7.99519C23.1487 7.51356 22.5467 7.27274 21.8122 7.27274C21.0837 7.27274 20.4395 7.49549 19.8736 7.94703C19.3077 8.39857 18.8742 9.04878 18.5611 9.9097C18.2481 10.7646 18.0915 11.5533 18.0915 12.2757C18.0915 13.1668 18.3324 13.8772 18.82 14.401C19.3016 14.9248 19.9157 15.1897 20.6502 15.1897C21.5714 15.1897 22.348 14.7923 22.9741 14.0036C23.8652 12.8838 24.3107 11.5232 24.3107 9.91572ZM14.7141 12.3239C14.7141 10.0181 15.3643 8.17581 16.6707 6.80314C17.9711 5.43047 19.687 4.74414 21.8062 4.74414C23.6484 4.74414 25.0813 5.24986 26.1168 6.2613C27.1523 7.27274 27.6641 8.63938 27.6641 10.3492C27.6641 12.3661 27.0199 14.112 25.7255 15.587C24.4371 17.056 22.7032 17.7965 20.5358 17.7965C19.3619 17.7965 18.3203 17.5617 17.4112 17.0921C16.5021 16.6225 15.8278 15.9603 15.3823 15.0993C14.9368 14.2324 14.7141 13.3113 14.7141 12.3239Z" fill="#333333"/>
<path d="M40.1264 17.5016H36.9597L36.3456 9.56662L32.5467 17.5016H29.422L27.8627 5.0332H30.8549L31.7219 13.3956L35.6111 5.0332H38.6755L39.0969 13.3956L42.956 5.0332H46.3335L40.1264 17.5016Z" fill="#333333"/>
<path d="M53.2872 10.2591C53.2932 10.1085 53.2992 9.99415 53.2992 9.91588C53.2992 8.99475 53.0945 8.3024 52.6791 7.83882C52.2637 7.37525 51.7098 7.14647 51.0114 7.14647C50.3131 7.14647 49.6929 7.41137 49.1391 7.93515C48.5852 8.45893 48.2119 9.23557 48.0193 10.2591H53.2872ZM56.1288 12.312H47.6821C47.6761 12.4445 47.6701 12.5468 47.6701 12.6191C47.6701 13.4499 47.9049 14.1182 48.3805 14.6239C48.8561 15.1296 49.428 15.3885 50.1144 15.3885C51.2342 15.3885 52.1072 14.8105 52.7333 13.6486L55.7495 14.1543C55.1656 15.3704 54.3769 16.2795 53.3955 16.8816C52.4142 17.4836 51.3124 17.7907 50.0903 17.7907C48.4166 17.7907 47.056 17.2609 46.0084 16.2013C44.9609 15.1417 44.4371 13.7389 44.4371 11.9929C44.4371 10.2892 44.9127 8.76598 45.8579 7.43545C47.1523 5.63533 48.9946 4.73828 51.3847 4.73828C52.9079 4.73828 54.124 5.20788 55.0211 6.15309C55.9181 7.09831 56.3696 8.41679 56.3696 10.1146C56.3636 10.9333 56.2854 11.6618 56.1288 12.312Z" fill="#333333"/>
<path d="M57.9771 5.03312H61.1198L60.6141 7.45335C61.7881 5.64721 63.0584 4.74414 64.4311 4.74414C64.9187 4.74414 65.4365 4.86455 65.9904 5.10537L64.702 7.86274C64.395 7.75438 64.0699 7.70019 63.7267 7.70019C63.1487 7.70019 62.5587 7.91693 61.9567 8.35642C61.3606 8.79592 60.891 9.3799 60.5539 10.1144C60.2168 10.8489 59.8856 12.0048 59.5545 13.5942L58.7357 17.5015H55.3643L57.9771 5.03312Z" fill="#333333"/>
<path d="M73.6002 5.03311L73.0825 7.49548H70.6984L68.6093 17.4955H65.2438L67.3329 7.49548H65.4546L65.9723 5.03311H67.8507L68.1216 3.75677C68.3384 2.70921 68.5491 1.9988 68.7417 1.63155C69.0066 1.13185 69.404 0.734497 69.9338 0.439494C70.4636 0.144491 71.1499 0 72.0048 0C73.0403 0 74.124 0.186635 75.2679 0.565924L74.6117 2.97411C73.8049 2.69717 73.1487 2.56472 72.649 2.56472C72.2637 2.56472 71.9807 2.68513 71.7941 2.93197C71.6677 3.0885 71.5412 3.49789 71.4088 4.16616L71.2222 5.04515H73.6002" fill="#333333"/>
<path d="M74.1361 5.03312H77.2788L76.773 7.45335C77.947 5.64721 79.2173 4.74414 80.59 4.74414C81.0777 4.74414 81.5954 4.86455 82.1493 5.10537L80.8609 7.86274C80.5539 7.75438 80.2288 7.70019 79.8856 7.70019C79.3077 7.70019 78.7176 7.91693 78.1216 8.35642C77.5256 8.79592 77.056 9.3799 76.7189 10.1144C76.3817 10.8489 76.0506 12.0048 75.7195 13.5942L74.8947 17.5015H71.5232L74.1361 5.03312Z" fill="#333333"/>
<path d="M89.9639 9.91572C89.9639 9.115 89.7291 8.47683 89.2655 7.99519C88.8019 7.51356 88.1999 7.27274 87.4654 7.27274C86.7369 7.27274 86.0927 7.49549 85.5268 7.94703C84.9608 8.39857 84.5274 9.04878 84.2143 9.9097C83.9012 10.7646 83.7447 11.5533 83.7447 12.2757C83.7447 13.1668 83.9855 13.8772 84.4732 14.401C84.9608 14.9248 85.5689 15.1897 86.3034 15.1897C87.2245 15.1897 88.0012 14.7923 88.6273 14.0036C89.5183 12.8838 89.9639 11.5232 89.9639 9.91572ZM80.3612 12.3239C80.3612 10.0181 81.0114 8.17581 82.3179 6.80314C83.6183 5.43047 85.3341 4.74414 87.4533 4.74414C89.2896 4.74414 90.7285 5.24986 91.758 6.2613C92.7935 7.27274 93.3052 8.63938 93.3052 10.3492C93.3052 12.3661 92.661 14.112 91.3666 15.587C90.0782 17.056 88.3444 17.7965 86.177 17.7965C85.003 17.7965 83.9614 17.5617 83.0524 17.0921C82.1433 16.6225 81.469 15.9603 81.0235 15.0993C80.584 14.2324 80.3612 13.3113 80.3612 12.3239Z" fill="#333333"/>
<path d="M95.4063 5.03328H98.5972L98.2721 6.65279C99.0668 5.96646 99.8133 5.47278 100.506 5.17778C101.198 4.88277 101.927 4.73828 102.697 4.73828C103.721 4.73828 104.527 5.03328 105.123 5.61727C105.713 6.20126 106.008 6.98392 106.008 7.95321C106.008 8.39271 105.882 9.22353 105.623 10.4397L104.154 17.4957H100.783L102.264 10.4156C102.48 9.362 102.595 8.72985 102.595 8.52516C102.595 8.09168 102.468 7.75454 102.215 7.5077C101.963 7.26086 101.607 7.14045 101.156 7.14045C100.662 7.14045 100.114 7.35117 99.5123 7.76056C98.9103 8.17597 98.4346 8.72383 98.0915 9.40415C97.8386 9.8918 97.5617 10.8792 97.2486 12.3722L96.183 17.4896H92.8115L95.4063 5.03328Z" fill="#333333"/>
<path d="M106.478 7.5375L106.996 5.03901H108.639L109.049 3.04021L112.914 0.716309L112.011 5.03298H114.064L113.546 7.53148H111.481L110.391 12.7512C110.193 13.6964 110.096 14.2383 110.096 14.3707C110.096 14.6296 110.181 14.8283 110.343 14.9728C110.506 15.1173 110.807 15.1895 111.234 15.1895C111.385 15.1895 111.752 15.1594 112.348 15.1052L111.818 17.6037C111.24 17.7181 110.644 17.7783 110.036 17.7783C108.844 17.7783 107.983 17.5495 107.441 17.092C106.899 16.6344 106.629 15.9963 106.629 15.1835C106.629 14.7982 106.773 13.9192 107.062 12.5285L108.11 7.51944H106.478" fill="#333333"/>
<path d="M117.718 4.13592V1.84814H118.441L118.856 3.41949L119.278 1.84814H120V4.1299H119.561V2.31172L119.067 4.1299H118.651L118.158 2.31172V4.1299H117.718V4.13592ZM116.297 4.13592V2.2455H115.593V1.84814H117.447V2.2455H116.761V4.13592H116.297Z" fill="#333333"/>
</g>
<defs>
<clipPath id="clip0">
<rect width="120" height="17.7965" fill="white"/>
</clipPath>
</defs>
</svg>
